<?xml version="1.0" encoding="UTF-8"?>
<svg id="Layer_3" data-name="Layer 3" xmlns="http://www.w3.org/2000/svg" viewBox="0 0 179.25 171.75">
  <defs>
    <style>
      .cls-1 {
        fill: #fff;
        fill-rule: evenodd;
        stroke-width: 0px;
      }

      .cls-2 {
        stroke: #000;
        stroke-miterlimit: 22.93;
        stroke-width: .57px;
      }
    </style>
  </defs>
  <circle class="cls-2" cx="85.87" cy="85.87" r="85.59" transform="translate(-15.51 152.73) rotate(-78.4)"/>
  <path class="cls-1" d="m35.38,79.8c28.32-12.34,47.2-20.47,56.65-24.4,26.98-11.22,32.58-13.17,36.23-13.23.8-.01,2.6.19,3.76,1.13.98.8,1.25,1.87,1.38,2.63.13.76.29,2.48.16,3.82-1.46,15.36-7.79,52.63-11,69.83-1.36,7.28-4.04,9.72-6.64,9.96-5.64.52-9.92-3.73-15.39-7.31-8.55-5.6-13.38-9.09-21.68-14.56-9.59-6.32-3.37-9.79,2.09-15.47,1.43-1.49,26.28-24.09,26.76-26.14.06-.26.12-1.21-.45-1.72-.57-.5-1.41-.33-2.01-.19-.86.19-14.51,9.22-40.97,27.08-3.88,2.66-7.39,3.96-10.53,3.89-3.47-.07-10.14-1.96-15.1-3.57-6.08-1.98-10.92-3.02-10.5-6.38.22-1.75,2.63-3.54,7.23-5.37Z"/>
</svg>